<?xml version="1.0" encoding="UTF-8" standalone="no"?><!DOCTYPE svg PUBLIC "-//W3C//DTD SVG 1.1//EN" "http://www.w3.org/Graphics/SVG/1.1/DTD/svg11.dtd"><svg width="100%" height="100%" viewBox="0 0 123 123" version="1.1" xmlns="http://www.w3.org/2000/svg" xmlns:xlink="http://www.w3.org/1999/xlink" xml:space="preserve" xmlns:serif="http://www.serif.com/" style="fill-rule:evenodd;clip-rule:evenodd;stroke-miterlimit:1;"><path d="M122.88,16.59c0,-1.24 -1.007,-2.247 -2.247,-2.247l-118.386,0c-1.24,0 -2.247,1.007 -2.247,2.247l0,70.406c0,1.24 1.007,2.247 2.247,2.247l118.386,-0c1.24,-0 2.247,-1.007 2.247,-2.247l0,-70.406Z" style="fill:url(#_Linear1);"/><path d="M122.88,16.59c0,-1.24 -1.007,-2.247 -2.247,-2.247l-118.386,0c-1.24,0 -2.247,1.007 -2.247,2.247l0,70.406c0,1.24 1.007,2.247 2.247,2.247l118.386,-0c1.24,-0 2.247,-1.007 2.247,-2.247l0,-70.406Zm-119.38,1.253l0,67.9l115.88,-0l0,-67.9l-115.88,0Z" style="fill:#aaa;"/><path d="M61.686,89.243c-0,5.314 -0.246,10.647 -0.246,15.902" style="fill:none;stroke:#aaa;stroke-width:14px;"/><path d="M94.202,106.158c-0,-0.559 -0.454,-1.013 -1.013,-1.013l-63.006,0c-0.559,0 -1.013,0.454 -1.013,1.013l-0,3.04l65.032,0l-0,-3.04Z" style="fill:url(#_Linear2);"/><path d="M94.202,106.158c-0,-0.559 -0.454,-1.013 -1.013,-1.013l-63.006,0c-0.559,0 -1.013,0.454 -1.013,1.013l-0,3.04l65.032,0l-0,-3.04Z" style="fill:#aaa;"/><defs><linearGradient id="_Linear1" x1="0" y1="0" x2="1" y2="0" gradientUnits="userSpaceOnUse" gradientTransform="matrix(122.88,0,0,74.8996,8.10463e-15,14.3433)"><stop offset="0" style="stop-color:#f59e0b;stop-opacity:1"/><stop offset="1" style="stop-color:#b45309;stop-opacity:1"/></linearGradient><linearGradient id="_Linear2" x1="0" y1="0" x2="1" y2="0" gradientUnits="userSpaceOnUse" gradientTransform="matrix(65.0322,0,0,4.05326,29.1698,105.145)"><stop offset="0" style="stop-color:#f59e0b;stop-opacity:1"/><stop offset="1" style="stop-color:#b45309;stop-opacity:1"/></linearGradient></defs></svg>